# Blender v2.80 (sub 75) OBJ File: 'SGCarrier.blend'
# www.blender.org
mtllib SGCarrier.coll.frontbuldge.mtl
o Collision.FrontBuldge_Cube.003
v -2.905416 -1.509521 11.072840
v -2.905416 2.783324 11.935106
v -2.905416 0.097430 2.782213
v -2.905416 2.822518 2.938990
v 2.905416 -1.509521 11.072840
v 2.905416 2.783324 11.935106
v 2.905416 0.097430 2.782213
v 2.905416 2.822518 2.938990
vt 0.375000 0.000000
vt 0.625000 0.000000
vt 0.625000 0.250000
vt 0.375000 0.250000
vt 0.625000 0.500000
vt 0.375000 0.500000
vt 0.625000 0.750000
vt 0.375000 0.750000
vt 0.625000 1.000000
vt 0.375000 1.000000
vt 0.125000 0.500000
vt 0.125000 0.750000
vt 0.875000 0.500000
vt 0.875000 0.750000
vn -1.0000 0.0000 0.0000
vn 0.0000 0.0574 -0.9983
vn 1.0000 -0.0000 0.0000
vn 0.0000 -0.1969 0.9804
vn 0.0000 -0.9817 -0.1903
vn 0.0000 1.0000 0.0044
usemtl None
s off
f 1/1/1 2/2/1 4/3/1 3/4/1
f 3/4/2 4/3/2 8/5/2 7/6/2
f 7/6/3 8/5/3 6/7/3 5/8/3
f 5/8/4 6/7/4 2/9/4 1/10/4
f 3/11/5 7/6/5 5/8/5 1/12/5
f 8/5/6 4/13/6 2/14/6 6/7/6
