# Blender v2.82 (sub 7) OBJ File: 'sa_turret.blend'
# www.blender.org
mtllib sa_turret.mtl
o Icosphere
v 0.000000 -1.000000 0.000000
v -0.525725 -0.447219 0.723607
v -0.850649 -0.447220 -0.276388
v 0.000000 -0.447216 -0.894426
v 0.850649 -0.447220 -0.276388
v 0.525725 -0.447219 0.723607
v -0.850649 0.447220 0.276388
v -0.525725 0.447219 -0.723607
v 0.525725 0.447219 -0.723607
v 0.850649 0.447220 0.276388
v -0.000000 0.447216 0.894426
v 0.000000 1.000000 0.000000
v -0.499995 -0.850654 -0.162456
v -0.309011 -0.850654 0.425323
v -0.809012 -0.525738 0.262869
v -0.000000 -0.525736 0.850648
v 0.309011 -0.850654 0.425323
v 0.000000 -0.850652 -0.525730
v -0.499997 -0.525736 -0.688189
v 0.499995 -0.850654 -0.162456
v 0.499997 -0.525736 -0.688189
v 0.809012 -0.525738 0.262869
v -0.309013 0.000000 0.951058
v 0.309013 0.000000 0.951058
v -1.000000 0.000000 -0.000000
v -0.809017 0.000000 0.587786
v -0.309013 0.000000 -0.951058
v -0.809017 0.000000 -0.587786
v 0.809017 0.000000 -0.587786
v 0.309013 0.000000 -0.951058
v 0.809017 0.000000 0.587786
v 1.000000 0.000000 0.000000
v -0.499997 0.525736 0.688189
v -0.809012 0.525738 -0.262869
v 0.000000 0.525736 -0.850648
v 0.809012 0.525738 -0.262869
v 0.499997 0.525736 0.688189
v -0.499995 0.850654 0.162456
v 0.000000 0.850652 0.525730
v -0.309011 0.850654 -0.425323
v 0.309011 0.850654 -0.425323
v 0.499995 0.850654 0.162456
v -0.401309 0.044302 1.901237
v -0.534416 -0.095673 2.134151
v 0.714986 0.044302 2.225715
v 0.534416 -0.095673 2.134151
v 0.401309 0.044302 1.901237
v -0.714987 0.044302 2.225715
v 0.517935 0.208694 2.111462
v -0.517935 0.208694 2.111463
v -0.355089 0.043200 1.928388
v -0.528460 -0.135687 2.221634
v 0.755092 0.043200 2.285829
v 0.528459 -0.135687 2.221634
v 0.355089 0.043200 1.928389
v -0.755093 0.043200 2.285829
v 0.507877 0.253495 2.193300
v -0.507877 0.253495 2.193300
v 0.401309 0.029308 1.118054
v 0.714986 0.029309 0.890156
v -0.714987 0.029309 0.890155
v -0.401309 0.029308 1.118054
v -0.534416 -0.110666 0.971444
v 0.534416 -0.110666 0.971444
v 0.517935 0.193701 0.948756
v -0.517935 0.193701 0.948756
v -0.507877 0.312002 0.912894
v -0.355089 0.036176 1.123189
v -0.755093 0.036176 0.832571
v -0.528459 -0.198457 0.941229
v 0.755092 0.036176 0.832572
v 0.507877 0.312002 0.912894
v 0.355089 0.036176 1.123189
v 0.528459 -0.198457 0.941229
vt 0.774458 0.380152
vt 0.718767 0.382173
vt 0.757098 0.331412
vt 0.645820 0.374544
vt 0.678658 0.460257
vt 0.813434 0.347561
vt 0.819355 0.405866
vt 0.762610 0.434605
vt 0.571882 0.437850
vt 0.741122 0.275923
vt 0.692283 0.316906
vt 0.679097 0.232720
vt 0.856635 0.311437
vt 0.801514 0.286168
vt 0.868716 0.236709
vt 0.871139 0.431413
vt 0.871747 0.370161
vt 0.944368 0.410904
vt 0.757204 0.507751
vt 0.822157 0.472225
vt 0.823523 0.556128
vt 0.392294 0.685962
vt 0.325682 0.669630
vt 0.484263 0.577818
vt 0.489552 0.621398
vt 0.774271 0.207481
vt 0.932321 0.312777
vt 0.902679 0.500106
vt 0.738770 0.563463
vt 0.796896 0.582418
vt 0.713802 0.791642
vt 0.693451 0.762875
vt 0.209164 0.649742
vt 0.275276 0.688718
vt 0.198211 0.711995
vt 0.091058 0.701904
vt 0.145737 0.668821
vt 0.140080 0.734426
vt 0.091058 0.827042
vt 0.082467 0.764473
vt 0.140080 0.794520
vt 0.209163 0.879204
vt 0.145736 0.860125
vt 0.198211 0.816952
vt 0.309654 0.764473
vt 0.275276 0.840229
vt 0.239686 0.764473
vt 0.183053 0.764473
vt 0.380459 0.820305
vt 0.325682 0.859317
vt 0.392293 0.842984
vt 0.489551 0.907548
vt 0.484263 0.951129
vt 0.265038 0.936147
vt 0.163335 0.945661
vt 0.069314 0.903145
vt 0.012511 0.816320
vt 0.012511 0.712626
vt 0.069315 0.625801
vt 0.163336 0.583285
vt 0.265038 0.592800
vt 0.302366 0.927568
vt 0.495302 0.987489
vt 0.380459 0.708641
vt 0.609948 0.300709
vt 0.477165 0.764473
vt 0.681809 0.569314
vt 0.357492 0.379129
vt 0.380542 0.401272
vt 0.347469 0.518421
vt 0.321131 0.536787
vt 0.500911 0.977861
vt 0.491543 0.945438
vt 0.575014 0.876522
vt 0.607271 0.875868
vt 0.495882 0.620768
vt 0.491544 0.583509
vt 0.575014 0.652425
vt 0.561551 0.665971
vt 0.399168 0.437375
vt 0.367906 0.521718
vt 0.302366 0.601378
vt 0.495303 0.541458
vt 0.587724 0.382824
vt 0.544327 0.432810
vt 0.405192 0.434081
vt 0.383439 0.392125
vt 0.579359 0.322260
vt 0.358728 0.367003
vt 0.681891 0.597326
vt 0.656009 0.734038
vt 0.701649 0.790713
vt 0.683935 0.764106
vt 0.651701 0.739383
vt 0.495881 0.908179
vt 0.500912 0.551086
vt 0.562782 0.775918
vt 0.540043 0.798589
vt 0.563155 0.755221
vt 0.561550 0.862976
vt 0.607270 0.653079
vn -0.3151 -0.9435 0.1024
vn -0.2680 -0.6617 0.7002
vn -0.1947 -0.9435 -0.2680
vn 0.1947 -0.9435 -0.2680
vn 0.3151 -0.9435 0.1024
vn -0.2680 -0.3304 0.9050
vn -0.9435 -0.3304 0.0247
vn -0.3151 -0.3304 -0.8897
vn 0.7488 -0.3304 -0.5746
vn 0.7779 -0.3304 0.5346
vn 0.8472 0.5311 0.0131
vn -0.9435 -0.1256 -0.3066
vn 0.0000 -0.1256 -0.9921
vn 0.9435 -0.1256 -0.3066
vn 0.6749 -0.7377 0.0188
vn -0.6284 0.6617 0.4089
vn -0.5831 0.6617 -0.4713
vn 0.2680 0.6617 -0.7002
vn 0.7488 0.6617 0.0385
vn 0.1947 0.6617 0.7240
vn 0.1947 0.9435 0.2680
vn 0.3568 0.7947 0.4911
vn 0.6284 0.6617 0.4089
vn 0.3151 0.9435 -0.1024
vn 0.5773 0.7947 -0.1876
vn 0.5831 0.6617 -0.4713
vn 0.0000 0.9435 -0.3313
vn 0.0000 0.7947 -0.6071
vn -0.2680 0.6617 -0.7002
vn -0.3151 0.9435 -0.1024
vn -0.5773 0.7947 -0.1876
vn -0.7488 0.6617 0.0385
vn -0.1947 0.9435 0.2680
vn -0.3568 0.7947 0.4911
vn -0.1947 0.6617 0.7240
vn 0.3151 0.3304 0.8897
vn -0.8472 0.5311 0.0131
vn 0.7488 0.3304 0.5746
vn 0.9435 0.3304 -0.0247
vn 0.9342 0.1876 -0.3035
vn 0.7779 0.3304 -0.5346
vn 0.2680 0.3304 -0.9050
vn -0.0000 0.1876 -0.9822
vn -0.2680 0.3304 -0.9050
vn -0.7779 0.3304 -0.5346
vn -0.9342 0.1876 -0.3035
vn -0.9435 0.3304 -0.0247
vn -0.7488 0.3304 0.5746
vn 0.7009 0.7132 0.0134
vn -0.3151 0.3304 0.8897
vn 0.9435 0.1256 0.3066
vn 0.9342 -0.1876 0.3035
vn 0.9435 -0.3304 0.0247
vn 0.5831 0.1256 -0.8026
vn 0.5773 -0.1876 -0.7947
vn 0.3151 -0.3304 -0.8897
vn -0.5831 0.1256 -0.8026
vn -0.5773 -0.1876 -0.7947
vn -0.7488 -0.3304 -0.5746
vn -0.9435 0.1256 0.3066
vn -0.9342 -0.1876 0.3035
vn -0.7779 -0.3304 0.5346
vn 0.0000 0.1256 0.9921
vn 0.0000 -0.1876 0.9822
vn 0.2680 -0.3304 0.9050
vn 0.5831 -0.6617 0.4713
vn 0.5773 -0.7947 0.1876
vn 0.7488 -0.6617 -0.0385
vn 0.6284 -0.6617 -0.4089
vn 0.3568 -0.7947 -0.4911
vn 0.1947 -0.6617 -0.7240
vn -0.1947 -0.6617 -0.7240
vn -0.3568 -0.7947 -0.4911
vn -0.6284 -0.6617 -0.4089
vn 0.2680 -0.6617 0.7002
vn 0.0000 -0.7947 0.6071
vn -0.0000 -0.9435 0.3313
vn -0.7488 -0.6617 -0.0385
vn -0.5773 -0.7947 0.1876
vn -0.5831 -0.6617 0.4713
vn 0.6125 0.7904 -0.0095
vn -0.6413 -0.7672 0.0092
vn -0.8150 -0.5793 0.0089
vn -0.7262 0.6874 -0.0106
vn -0.7009 0.7132 0.0134
vn 0.7689 -0.6390 0.0214
vn -0.6749 -0.7377 0.0188
vn -0.7689 -0.6390 0.0214
vn -0.2111 0.8856 0.4137
vn -0.6570 0.6731 0.3395
vn 0.2111 0.8856 0.4137
vn 0.6570 0.6731 0.3395
vn 0.2950 -0.8245 0.4829
vn -0.6937 -0.6338 0.3420
vn 0.6937 -0.6338 0.3420
vn -0.2950 -0.8245 0.4829
vn -0.5648 -0.2771 0.7773
vn 0.5648 -0.2771 0.7773
vn 0.5427 0.3842 0.7469
vn -0.5427 0.3842 0.7469
vn -0.6125 0.7904 -0.0095
vn 0.6413 -0.7672 0.0092
vn 0.8150 -0.5793 0.0089
vn 0.7262 0.6874 -0.0106
vn -0.8018 -0.4650 0.3753
vn 0.5530 -0.6381 0.5357
vn -0.8183 0.5065 0.2718
vn 0.7722 0.5342 0.3440
vn -0.5530 -0.6381 0.5357
vn 0.8183 0.5065 0.2718
vn -0.7722 0.5342 0.3440
vn 0.8018 -0.4650 0.3753
usemtl Material.002
s off
f 1/1/1 14/2/1 13/3/1
f 2/4/2 14/2/2 16/5/2
f 1/1/3 13/3/3 18/6/3
f 1/1/4 18/6/4 20/7/4
f 1/1/5 20/7/5 17/8/5
f 2/4/6 16/5/6 23/9/6
f 3/10/7 15/11/7 25/12/7
f 4/13/8 19/14/8 27/15/8
f 5/16/9 21/17/9 29/18/9
f 6/19/10 22/20/10 31/21/10
f 68/22/11 67/23/11 58/24/11 51/25/11
f 3/10/12 25/12/12 28/26/12
f 4/13/13 27/15/13 30/27/13
f 5/16/14 29/18/14 32/28/14
f 74/29/15 71/30/15 53/31/15 54/32/15
f 7/33/16 33/34/16 38/35/16
f 8/36/17 34/37/17 40/38/17
f 9/39/18 35/40/18 41/41/18
f 10/42/19 36/43/19 42/44/19
f 11/45/20 37/46/20 39/47/20
f 39/47/21 42/44/21 12/48/21
f 39/47/22 37/46/22 42/44/22
f 37/46/23 10/42/23 42/44/23
f 42/44/24 41/41/24 12/48/24
f 42/44/25 36/43/25 41/41/25
f 36/43/26 9/39/26 41/41/26
f 41/41/27 40/38/27 12/48/27
f 41/41/28 35/40/28 40/38/28
f 35/40/29 8/36/29 40/38/29
f 40/38/30 38/35/30 12/48/30
f 40/38/31 34/37/31 38/35/31
f 34/37/32 7/33/32 38/35/32
f 38/35/33 39/47/33 12/48/33
f 38/35/34 33/34/34 39/47/34
f 33/34/35 11/45/35 39/47/35
f 24/49/36 37/46/36 11/45/36
f 72/50/37 73/51/37 55/52/37 57/53/37
f 31/54/38 10/42/38 37/46/38
f 32/55/39 36/43/39 10/42/39
f 32/55/40 29/56/40 36/43/40
f 29/56/41 9/39/41 36/43/41
f 30/57/42 35/40/42 9/39/42
f 30/57/43 27/58/43 35/40/43
f 27/58/44 8/36/44 35/40/44
f 28/59/45 34/37/45 8/36/45
f 28/59/46 25/60/46 34/37/46
f 25/60/47 7/33/47 34/37/47
f 26/61/48 33/34/48 7/33/48
f 71/62/49 72/50/49 57/53/49 53/63/49
f 23/64/50 11/45/50 33/34/50
f 31/54/51 32/55/51 10/42/51
f 31/21/52 22/20/52 32/28/52
f 22/20/53 5/16/53 32/28/53
f 29/56/54 30/57/54 9/39/54
f 29/18/55 21/17/55 30/27/55
f 21/17/56 4/13/56 30/27/56
f 27/58/57 28/59/57 8/36/57
f 27/15/58 19/14/58 28/26/58
f 19/14/59 3/10/59 28/26/59
f 25/60/60 26/61/60 7/33/60
f 25/12/61 15/11/61 26/65/61
f 15/11/62 2/4/62 26/65/62
f 23/64/63 24/49/63 11/45/63
f 23/64/64 16/66/64 24/49/64
f 16/5/65 6/19/65 24/67/65
f 17/8/66 22/20/66 6/19/66
f 17/8/67 20/7/67 22/20/67
f 20/7/68 5/16/68 22/20/68
f 20/7/69 21/17/69 5/16/69
f 20/7/70 18/6/70 21/17/70
f 18/6/71 4/13/71 21/17/71
f 18/6/72 19/14/72 4/13/72
f 18/6/73 13/3/73 19/14/73
f 13/3/74 3/10/74 19/14/74
f 16/5/75 17/8/75 6/19/75
f 16/5/76 14/2/76 17/8/76
f 14/2/77 1/1/77 17/8/77
f 13/3/78 15/11/78 3/10/78
f 13/3/79 14/2/79 15/11/79
f 14/2/80 2/4/80 15/11/80
f 48/68/81 44/69/81 63/70/81 61/71/81
f 45/72/82 49/73/82 65/74/82 60/75/82
f 43/76/83 50/77/83 66/78/83 62/79/83
f 44/69/84 43/80/84 62/81/84 63/70/84
f 67/23/85 69/82/85 56/83/85 58/24/85
f 70/84/86 68/85/86 51/86/86 52/87/86
f 69/88/87 70/84/87 52/87/87 56/89/87
f 73/90/88 74/29/88 54/32/88 55/91/88
f 43/80/89 44/69/89 52/87/89 51/86/89
f 45/92/90 46/93/90 54/32/90 53/31/90
f 46/93/91 47/94/91 55/91/91 54/32/91
f 44/69/92 48/68/92 56/89/92 52/87/92
f 47/95/93 49/73/93 57/53/93 55/52/93
f 49/73/94 45/72/94 53/63/94 57/53/94
f 48/96/95 50/77/95 58/24/95 56/83/95
f 50/77/96 43/76/96 51/25/96 58/24/96
f 63/70/97 62/81/97 61/71/97
f 64/97/98 60/98/98 59/99/98
f 59/100/99 60/75/99 65/74/99
f 61/101/100 62/79/100 66/78/100
f 46/93/101 45/92/101 60/98/101 64/97/101
f 50/77/102 48/96/102 61/101/102 66/78/102
f 49/73/103 47/95/103 59/100/103 65/74/103
f 47/94/104 46/93/104 64/97/104 59/99/104
f 26/65/105 2/4/105 70/84/105 69/88/105
f 2/4/106 23/9/106 68/85/106 70/84/106
f 33/34/107 26/61/107 69/82/107 67/23/107
f 23/64/108 33/34/108 67/23/108 68/22/108
f 24/67/109 6/19/109 74/29/109 73/90/109
f 31/54/110 37/46/110 72/50/110 71/62/110
f 37/46/111 24/49/111 73/51/111 72/50/111
f 6/19/112 31/21/112 71/30/112 74/29/112
