# Blender v2.80 (sub 75) OBJ File: 'SGCarrier.blend'
# www.blender.org
mtllib SGCarrier.coll.booster.left.mtl
o Collision.Booster.left_Cube.001
v -4.844271 -2.588173 -2.307917
v -4.850119 1.851080 -2.415996
v -4.850119 -2.652379 -9.146143
v -4.850119 1.875312 -10.952668
v -1.126826 -2.652379 -9.146143
v -1.126826 1.851080 -2.415996
v -1.126826 1.875312 -10.952668
v -1.120979 -2.588173 -2.307917
vt 0.375000 0.000000
vt 0.625000 0.000000
vt 0.625000 0.250000
vt 0.375000 0.250000
vt 0.375000 0.937500
vt 0.625000 0.937500
vt 0.625000 1.000000
vt 0.375000 1.000000
vt 0.812500 0.500000
vt 0.875000 0.500000
vt 0.875000 0.750000
vt 0.812500 0.750000
vt 0.625000 0.312500
vt 0.375000 0.312500
vt 0.125000 0.500000
vt 0.187500 0.500000
vt 0.187500 0.750000
vt 0.125000 0.750000
vn -1.0000 -0.0006 0.0004
vn 0.0000 0.0243 0.9997
vn 0.0000 1.0000 0.0028
vn 0.0000 -0.3706 -0.9288
vn 0.0000 -1.0000 0.0094
vn 1.0000 0.0006 -0.0004
usemtl Material
s off
f 1/1/1 2/2/1 4/3/1 3/4/1
f 8/5/2 6/6/2 2/7/2 1/8/2
f 7/9/3 4/10/3 2/11/3 6/12/3
f 3/4/4 4/3/4 7/13/4 5/14/4
f 3/15/5 5/16/5 8/17/5 1/18/5
f 5/16/6 7/9/6 6/6/6 8/17/6
