# Blender v2.82 (sub 7) OBJ File: 'asteroid.blend'
# www.blender.org
mtllib asteroid.mtl
o Asteroid_Cube.003
v -1.087652 -0.987001 1.109249
v -1.033672 1.040433 0.978400
v -1.190287 -0.982202 -0.974145
v -1.029169 1.042744 -0.751834
v 0.998888 -0.993648 0.974409
v 0.894127 1.125650 1.114820
v 0.999900 -0.955335 -0.497771
v 0.909318 1.162052 -0.725754
v -0.005952 -1.682505 0.286886
v 0.014925 1.626231 -0.470343
v -0.010393 -1.140796 0.950271
v 0.043584 1.099847 1.064435
v -1.380212 -0.903469 -0.305773
v -1.414118 0.922977 0.016377
v 0.999900 -0.955335 0.201256
v 1.087480 1.050099 -0.117462
v 0.042654 1.638198 -0.063481
v 0.008155 -1.444297 0.624038
v -1.167435 -0.362947 1.019480
v -1.018879 0.750472 -1.032740
v 1.031289 0.709341 -1.092364
v 1.115306 0.506624 0.951494
v 0.008795 -0.278639 1.681446
v -0.051654 0.349454 -1.710968
v 1.388738 0.319076 -0.202162
v -1.499188 -0.042027 -0.028208
v -0.918563 0.234540 1.002885
v -1.000647 1.010886 -0.985767
v 0.996289 0.978457 -1.042825
v 1.026562 0.667709 1.053396
v -0.168539 0.434116 1.461602
v -0.028840 0.989191 -1.041808
v 1.282606 0.432960 -0.192138
v -1.530822 0.346407 0.118118
v -1.067685 -0.385674 -1.150272
v 1.353792 -0.672148 -0.710150
v 1.167078 -0.232347 0.987719
v 0.006224 -0.693549 1.238522
v 0.185829 -1.005779 -0.943370
v 1.474233 -0.483679 0.176040
v -1.403172 -0.374054 -0.292697
v -1.146101 -0.630248 1.058448
v -1.096608 -0.994187 0.281742
v 1.009850 1.004992 0.486780
v 0.037763 1.244351 0.441664
v -0.012112 -1.335598 0.738539
v -1.161310 0.886947 0.517539
v 1.001884 -1.035138 0.609708
v -1.137816 -0.181404 0.261489
v 1.515041 0.714092 0.741657
v -1.457531 0.718298 0.772620
v 1.251464 0.836826 0.612905
v 1.487884 -0.037542 0.378340
v -1.127940 -0.508341 0.279527
v 0.423464 1.425127 -0.669146
v 0.493559 -1.168555 1.003555
v 0.498398 -1.424274 -0.165010
v 0.464794 1.231501 1.186103
v 0.556015 1.343666 -0.107937
v 0.484299 -1.330458 0.340928
v 0.585731 0.130884 1.407641
v 0.387267 0.364655 -1.493642
v 0.437962 0.616179 1.342140
v 0.392203 0.994865 -1.054796
v 0.945844 -0.999577 -1.056411
v 0.571009 -0.514389 1.148553
v 0.510832 1.211418 0.481659
v 0.488585 -1.255511 0.647666
v -1.144274 -0.572026 -1.058299
v 1.198111 -0.796726 -0.616722
v 0.986496 -0.572108 1.001798
v -0.001086 -0.890298 1.111717
v 0.103342 -1.267735 -0.420961
v 1.265569 -0.691166 0.187133
v -1.405371 -0.696862 -0.682196
v -1.097781 -0.860099 1.090749
v -1.124257 -0.630250 0.286254
v 1.193787 -0.497547 0.627598
v 0.536938 -0.802164 1.084767
v 0.666801 -1.150966 -0.600453
v -0.588588 -1.333594 -0.158209
v -0.412205 0.972495 1.081720
v -0.455034 1.246942 -0.555193
v -0.590836 -1.103763 0.986008
v -0.610351 -1.081349 0.199849
v -0.685732 1.280587 -0.023552
v -0.504604 0.222818 -1.425623
v -0.532129 -0.317072 1.155909
v -0.502292 1.083029 -1.057039
v -0.543551 0.334328 1.232244
v -0.522747 -0.658177 0.953930
v -0.257235 -0.797149 -1.179166
v -0.569459 -1.041418 0.489850
v -0.561774 1.065649 0.479601
v -0.447104 -1.058634 -0.930236
v -0.591247 -0.915063 1.057481
v -1.201080 -0.508586 1.064255
v -1.086846 0.196719 -1.134435
v 1.236568 0.026500 -0.936733
v 1.183208 0.149686 1.007424
v 0.005112 -0.497963 1.517013
v 0.067024 -0.333844 -1.379330
v 1.418135 -0.118917 -0.078719
v -1.471265 -0.186832 -0.218412
v 1.557592 0.358702 0.581769
v -1.179951 -0.351208 0.280938
v 0.689977 -0.322723 -1.325145
v 0.598337 -0.192090 1.328001
v -0.550793 -0.499553 1.096079
v -0.398534 -0.291241 -1.353585
vt 0.280641 0.735131
vt 0.240299 0.766829
vt 0.175120 0.731672
vt 0.163582 0.713884
vt 0.723785 0.477610
vt 0.649453 0.458891
vt 0.692497 0.409554
vt 0.726536 0.412717
vt 0.648988 0.276418
vt 0.627429 0.298739
vt 0.590053 0.253219
vt 0.624626 0.231553
vt 0.400224 0.845420
vt 0.321598 0.897098
vt 0.303549 0.830197
vt 0.372844 0.793049
vt 0.823926 0.103151
vt 0.789797 0.156792
vt 0.763082 0.134459
vt 0.782780 0.088618
vt 0.242797 0.864251
vt 0.271253 0.802781
vt 0.567894 0.326447
vt 0.502562 0.352522
vt 0.489358 0.248193
vt 0.553693 0.251192
vt 0.445874 0.623676
vt 0.547787 0.604754
vt 0.555282 0.656850
vt 0.471063 0.673052
vt 0.567799 0.184027
vt 0.502310 0.111851
vt 0.116411 0.718734
vt 0.123358 0.784448
vt 0.061040 0.852000
vt 0.048932 0.716177
vt 0.389980 0.547160
vt 0.516365 0.505937
vt 0.545821 0.577287
vt 0.419126 0.596814
vt 0.585886 0.499548
vt 0.538891 0.451910
vt 0.605442 0.395643
vt 0.185550 0.825499
vt 0.908226 0.173293
vt 0.858841 0.251939
vt 0.815517 0.191269
vt 0.859584 0.124702
vt 0.662227 0.351172
vt 0.719525 0.317189
vt 0.302875 0.789672
vt 0.343411 0.697307
vt 0.335027 0.711409
vt 0.293361 0.700687
vt 0.290144 0.679938
vt 0.794981 0.348505
vt 0.751526 0.405031
vt 0.730436 0.309476
vt 0.756306 0.275090
vt 0.177839 0.546701
vt 0.133179 0.603117
vt 0.058366 0.573522
vt 0.143263 0.484257
vt 0.656723 0.121505
vt 0.619347 0.143041
vt 0.606192 0.030546
vt 0.649617 0.017098
vt 0.468249 0.751850
vt 0.461029 0.775562
vt 0.401619 0.732661
vt 0.408532 0.722132
vt 0.689960 0.251658
vt 0.667288 0.260455
vt 0.645479 0.228363
vt 0.672916 0.204081
vt 0.871683 0.377550
vt 0.830131 0.469900
vt 0.170279 0.691742
vt 0.197771 0.646181
vt 0.291573 0.620631
vt 0.296411 0.662410
vt 0.235722 0.603529
vt 0.257336 0.599543
vt 0.904462 0.243608
vt 0.881118 0.298564
vt 0.828779 0.290444
vt 0.841235 0.273847
vt 0.745923 0.192312
vt 0.725952 0.245038
vt 0.703030 0.182077
vt 0.728037 0.151738
vt 0.472778 0.697910
vt 0.475640 0.727842
vt 0.415763 0.713392
vt 0.426532 0.697037
vt 0.737188 0.092723
vt 0.701931 0.104867
vt 0.707340 0.014560
vt 0.747089 0.011823
vt 0.284100 0.513254
vt 0.233306 0.499615
vt 0.263687 0.418073
vt 0.374955 0.426390
vt 0.768471 0.236268
vt 0.787385 0.217091
vt 0.359438 0.675434
vt 0.353151 0.683968
vt 0.867527 0.040223
vt 0.844819 0.029807
vt 0.982318 0.194235
vt 0.982318 0.299667
vt 0.868989 0.535467
vt 0.717867 0.542341
vt 0.945033 0.431195
vt 0.931387 0.067025
vt 0.799655 0.017955
vt 0.431011 0.688316
vt 0.380421 0.645664
vt 0.325462 0.622943
vt 0.290182 0.588016
vt 0.555556 0.708454
vt 0.099996 0.905035
vt 0.200398 0.950629
vt 0.555522 0.748482
vt 0.548441 0.844611
vt 0.432831 0.908740
vt 0.555556 0.801988
vt 0.308962 0.970974
vn -0.9982 -0.0226 0.0553
vn -0.7659 0.6408 -0.0533
vn -0.6417 0.7076 -0.2958
vn -0.5699 0.5620 -0.5994
vn 0.1140 0.6419 -0.7582
vn 0.2665 0.8667 -0.4217
vn 0.6057 0.7397 -0.2933
vn 0.5755 0.5824 -0.5741
vn 0.7506 0.6448 0.1442
vn 0.6673 0.7400 0.0847
vn 0.5517 0.6490 0.5239
vn 0.5632 0.3321 0.7566
vn -0.4306 0.1313 0.8929
vn -0.3146 0.7050 0.6356
vn -0.3868 0.7016 0.5985
vn -0.5914 0.0253 0.8059
vn 0.3277 -0.9108 0.2511
vn 0.7120 -0.6876 0.1426
vn 0.6177 -0.4953 0.6108
vn 0.1717 -0.6953 0.6979
vn -0.2478 0.9317 0.2655
vn -0.5518 0.7734 0.3119
vn 0.2364 0.9583 0.1602
vn -0.1006 0.9340 0.3429
vn -0.2206 0.8046 0.5513
vn 0.1329 0.7856 0.6042
vn -0.3405 -0.9321 0.1232
vn -0.1587 -0.9234 0.3495
vn -0.0760 -0.7484 0.6588
vn -0.1181 -0.8165 0.5651
vn 0.2019 0.2620 0.9437
vn -0.2631 0.2833 0.9222
vn -0.2408 0.7078 -0.6640
vn -0.3356 0.8916 -0.3039
vn -0.0419 0.9447 -0.3252
vn -0.0779 0.6764 -0.7324
vn -0.3856 -0.9188 -0.0845
vn -0.0730 -0.9860 0.1501
vn -0.1026 -0.8998 0.4240
vn -0.4657 -0.8588 0.2136
vn -0.0112 0.9807 0.1951
vn 0.4263 0.8917 0.1521
vn -0.3906 0.9069 0.1578
vn 0.3754 -0.9047 -0.2015
vn 0.6170 -0.7791 -0.1106
vn 0.6992 -0.7123 0.0607
vn 0.5242 -0.8304 0.1887
vn 0.7404 0.6721 -0.0026
vn 0.8299 0.5194 -0.2035
vn -0.8609 0.1816 0.4753
vn -0.9577 -0.1869 0.2187
vn -0.9006 -0.1870 0.3923
vn -0.9724 -0.1640 0.1656
vn -0.9948 -0.1003 -0.0157
vn 0.8347 0.0415 -0.5492
vn 0.6896 0.3246 -0.6474
vn 0.9177 0.3015 -0.2586
vn 0.9796 0.0680 -0.1888
vn -0.2265 -0.2646 -0.9373
vn -0.3530 0.0892 -0.9313
vn -0.0423 0.1728 -0.9840
vn 0.0266 -0.3880 -0.9212
vn 0.5079 -0.3061 0.8052
vn 0.4398 0.0623 0.8959
vn -0.0724 -0.1665 0.9834
vn -0.0421 -0.5755 0.8167
vn -0.2773 -0.4340 0.8571
vn -0.4610 -0.1157 0.8798
vn -0.7546 0.0512 0.6542
vn -0.7498 -0.2480 0.6134
vn 0.9707 -0.0237 0.2391
vn 0.8032 0.4581 0.3807
vn 0.5466 0.2057 0.8117
vn 0.6703 -0.1128 0.7334
vn 0.3594 -0.2323 -0.9038
vn 0.3114 0.1942 -0.9302
vn -0.6845 0.2066 -0.6991
vn -0.7266 0.0199 -0.6867
vn -0.9677 -0.0070 -0.2519
vn -0.9843 -0.1747 0.0258
vn -0.5973 -0.1555 -0.7868
vn -0.6840 -0.2265 -0.6934
vn 0.2829 -0.9052 -0.3170
vn 0.4338 -0.6722 -0.5999
vn 0.8744 -0.3756 -0.3072
vn 0.6289 -0.7771 0.0223
vn 0.8679 -0.3771 0.3233
vn 0.9670 -0.1893 0.1705
vn 0.7057 -0.3077 0.6381
vn 0.6150 -0.2399 0.7511
vn 0.0055 -0.0967 0.9953
vn -0.1574 -0.2558 0.9538
vn -0.6729 -0.3163 0.6686
vn -0.6514 -0.0143 0.7585
vn 0.1648 -0.2648 0.9501
vn 0.3603 -0.3687 0.8568
vn -0.0312 -0.5101 0.8595
vn -0.0416 -0.3028 0.9521
vn -0.0685 -0.7639 -0.6417
vn -0.0508 -0.5336 -0.8442
vn 0.0224 -0.7487 -0.6625
vn -0.0208 -0.8819 -0.4709
vn 0.9243 -0.3508 0.1505
vn 0.7741 -0.6101 0.1685
vn -0.9822 -0.0998 0.1588
vn -0.9449 -0.2968 0.1382
vn -0.4962 -0.6093 0.6185
vn -0.7042 -0.7037 0.0946
vn -0.8847 -0.4186 0.2050
vn -0.5264 -0.7249 -0.4443
usemtl Material
s 1
f 34/1/1 14/2/2 4/3/3 28/4/4
f 64/5/5 55/6/6 8/7/7 29/8/8
f 52/9/9 44/10/10 6/11/11 30/12/12
f 90/13/13 82/14/14 2/15/15 27/16/16
f 68/17/17 48/18/18 5/19/19 56/20/20
f 94/21/21 47/22/22 2/15/15 82/14/14
f 67/23/23 45/24/24 12/25/25 58/26/26
f 93/27/27 46/28/28 11/29/29 84/30/30
f 63/31/31 58/26/26 12/25/25 31/32/32
f 89/33/33 83/34/34 10/35/35 32/36/36
f 81/37/37 9/38/38 18/39/39 85/40/40
f 55/6/6 10/41/35 17/42/41 59/43/42
f 83/34/34 4/3/3 14/2/2 86/44/43
f 57/45/44 7/46/45 15/47/46 60/48/47
f 29/8/8 8/7/7 16/49/48 33/50/49
f 51/51/50 47/22/22 14/2/2 34/1/1
f 106/52/51 49/53/52 26/54/53 104/55/54
f 99/56/55 21/57/56 25/58/57 103/59/58
f 110/60/59 87/61/60 24/62/61 102/63/62
f 108/64/63 61/65/64 23/66/65 101/67/66
f 109/68/67 88/69/68 19/70/69 97/71/70
f 105/72/71 50/73/72 22/74/73 100/75/74
f 107/76/75 62/77/76 21/57/56 99/56/55
f 104/55/54 26/54/53 20/78/77 98/79/78
f 49/53/52 51/51/50 34/1/1 26/54/53
f 21/57/56 29/8/8 33/50/49 25/58/57
f 87/61/60 89/33/33 32/36/36 24/62/61
f 61/65/64 63/31/31 31/32/32 23/66/65
f 88/69/68 90/13/13 27/16/16 19/70/69
f 50/73/72 52/9/9 30/12/12 22/74/73
f 62/77/76 64/5/5 29/8/8 21/57/56
f 26/54/53 34/1/1 28/4/4 20/78/77
f 75/80/79 41/81/80 35/82/81 69/83/82
f 80/84/83 65/85/84 36/86/85 70/87/86
f 78/88/87 53/89/88 37/90/89 71/91/90
f 96/92/91 91/93/92 42/94/93 76/95/94
f 79/96/95 66/97/96 38/98/97 72/99/98
f 95/100/99 92/101/100 39/102/101 73/103/102
f 70/87/86 36/86/85 40/104/103 74/105/104
f 77/106/105 54/107/106 41/81/80 75/80/79
f 76/95/94 42/94/93 54/107/106 77/106/105
f 74/105/104 40/104/103 53/89/88 78/88/87
f 25/58/57 33/50/49 52/9/9 50/73/72
f 19/70/69 27/16/16 51/51/50 49/53/52
f 103/59/58 25/58/57 50/73/72 105/72/71
f 97/71/70 19/70/69 49/53/52 106/52/51
f 27/16/16 2/15/15 47/22/22 51/51/50
f 85/40/40 18/39/39 46/28/28 93/27/27
f 59/43/42 17/42/41 45/24/24 67/23/23
f 86/44/43 14/2/2 47/22/22 94/21/21
f 60/48/47 15/47/46 48/18/18 68/17/17
f 33/50/49 16/49/48 44/10/10 52/9/9
f 18/108/39 60/48/47 68/17/17 46/109/28
f 16/49/48 59/43/42 67/23/23 44/10/10
f 71/91/90 37/90/89 66/97/96 79/96/95
f 73/110/102 39/111/101 65/85/84 80/84/83
f 24/112/61 32/113/36 64/5/5 62/77/76
f 22/74/73 30/12/12 63/31/31 61/65/64
f 102/114/62 24/112/61 62/77/76 107/76/75
f 100/75/74 22/74/73 61/65/64 108/64/63
f 9/115/38 57/45/44 60/48/47 18/108/39
f 8/7/7 55/6/6 59/43/42 16/49/48
f 30/12/12 6/11/11 58/26/26 63/31/31
f 44/10/10 67/23/23 58/26/26 6/11/11
f 46/109/28 68/17/17 56/20/20 11/116/29
f 32/113/36 10/41/35 55/6/6 64/5/5
f 9/115/38 73/110/102 80/84/83 57/45/44
f 5/19/19 71/91/90 79/96/95 56/20/20
f 15/47/46 74/105/104 78/88/87 48/18/18
f 1/117/107 76/95/94 77/106/105 43/118/108
f 43/118/108 77/106/105 75/80/79 13/119/109
f 7/46/45 70/87/86 74/105/104 15/47/46
f 81/37/37 95/100/99 73/103/102 9/38/38
f 56/20/20 79/96/95 72/99/98 11/116/29
f 84/30/30 96/92/91 76/95/94 1/117/107
f 48/18/18 78/88/87 71/91/90 5/19/19
f 57/45/44 80/84/83 70/87/86 7/46/45
f 13/119/109 75/80/79 69/83/82 3/120/110
f 11/29/29 72/121/98 96/92/91 84/30/30
f 3/120/110 69/83/82 95/100/99 81/37/37
f 17/122/41 86/44/43 94/21/21 45/123/24
f 13/119/109 85/40/40 93/27/27 43/118/108
f 69/83/82 35/82/81 92/101/100 95/100/99
f 72/121/98 38/124/97 91/93/92 96/92/91
f 23/125/65 31/126/32 90/13/13 88/69/68
f 20/78/77 28/4/4 89/33/33 87/61/60
f 101/127/66 23/125/65 88/69/68 109/68/67
f 98/79/78 20/78/77 87/61/60 110/60/59
f 10/35/35 83/34/34 86/44/43 17/122/41
f 3/120/110 81/37/37 85/40/40 13/119/109
f 28/4/4 4/3/3 83/34/34 89/33/33
f 43/118/108 93/27/27 84/30/30 1/117/107
f 45/123/24 94/21/21 82/14/14 12/128/25
f 31/126/32 12/128/25 82/14/14 90/13/13
f 35/82/81 98/79/78 110/60/59 92/101/100
f 38/124/97 101/127/66 109/68/67 91/93/92
f 37/90/89 100/75/74 108/64/63 66/97/96
f 39/111/101 102/114/62 107/76/75 65/85/84
f 42/94/93 97/71/70 106/52/51 54/107/106
f 40/104/103 103/59/58 105/72/71 53/89/88
f 41/81/80 104/55/54 98/79/78 35/82/81
f 65/85/84 107/76/75 99/56/55 36/86/85
f 53/89/88 105/72/71 100/75/74 37/90/89
f 91/93/92 109/68/67 97/71/70 42/94/93
f 66/97/96 108/64/63 101/67/66 38/98/97
f 92/101/100 110/60/59 102/63/62 39/102/101
f 36/86/85 99/56/55 103/59/58 40/104/103
f 54/107/106 106/52/51 104/55/54 41/81/80
