# Blender v2.82 (sub 7) OBJ File: ''
# www.blender.org
mtllib pyramid_rotated.mtl
o Cube_Cube.001
v -1.414214 0.000007 -1.000000
v 0.000007 1.414214 -1.000000
v 0.000000 -0.000000 1.000000
v -0.000007 -1.414214 -1.000000
v 1.414214 -0.000007 -1.000000
vt 0.625000 0.000000
vt 0.625000 0.250000
vt 0.375000 0.250000
vt 0.625000 0.500000
vt 0.375000 0.500000
vt 0.375000 0.750000
vt 0.125000 0.500000
vt 0.125000 0.750000
vt 0.875000 0.500000
vt 0.625000 0.750000
vn -0.6325 0.6325 0.4472
vn -0.0000 0.0000 -1.0000
vn 0.6325 -0.6325 0.4472
vn -0.6325 -0.6325 0.4472
vn 0.6325 0.6325 0.4472
usemtl None
s off
f 3/1/1 2/2/1 1/3/1
f 1/3/2 2/2/2 5/4/2 4/5/2
f 4/5/3 5/4/3 3/6/3
f 1/7/4 4/5/4 3/8/4
f 5/4/5 2/9/5 3/10/5
