# Blender v2.79 (sub 0) OBJ File: 'test_collision_shapes.blend'
# www.blender.org
mtllib uvsphere.mtl
o Sphere
v 0.000000 0.707107 -0.707107
v 0.000000 -0.000000 -1.000000
v 0.000000 -0.707107 -0.707107
v 0.500000 0.707107 -0.500000
v 0.707107 -0.000000 -0.707107
v 0.500000 -0.707107 -0.500000
v 0.707107 0.707107 0.000000
v 1.000000 -0.000000 0.000000
v 0.707107 -0.707107 0.000000
v 0.500000 0.707107 0.500000
v 0.707107 -0.000000 0.707107
v 0.500000 -0.707107 0.500000
v 0.000000 -1.000000 0.000000
v 0.000000 0.707107 0.707107
v 0.000000 -0.000000 1.000000
v 0.000000 -0.707107 0.707107
v -0.000000 1.000000 0.000000
v -0.500000 0.707107 0.500000
v -0.707107 -0.000000 0.707107
v -0.500000 -0.707107 0.500000
v -0.707107 0.707107 0.000000
v -1.000000 -0.000000 0.000000
v -0.707107 -0.707107 0.000000
v -0.500000 0.707107 -0.500000
v -0.707107 -0.000000 -0.707107
v -0.500000 -0.707107 -0.500000
vn 0.3574 -0.3574 -0.8629
vn 0.1566 0.9125 -0.3780
vn 0.1566 -0.9125 -0.3780
vn 0.3574 0.3574 -0.8629
vn 0.3780 0.9125 -0.1566
vn 0.3780 -0.9125 -0.1566
vn 0.8629 0.3574 -0.3574
vn 0.8629 -0.3574 -0.3574
vn 0.8629 -0.3574 0.3574
vn 0.3780 0.9125 0.1566
vn 0.3780 -0.9125 0.1566
vn 0.8629 0.3574 0.3574
vn 0.3574 -0.3574 0.8629
vn 0.1566 0.9125 0.3780
vn 0.1566 -0.9125 0.3780
vn 0.3574 0.3574 0.8629
vn -0.3574 -0.3574 0.8629
vn -0.1566 0.9125 0.3780
vn -0.1566 -0.9125 0.3780
vn -0.3574 0.3574 0.8629
vn -0.8629 -0.3574 0.3574
vn -0.3780 0.9125 0.1566
vn -0.3780 -0.9125 0.1566
vn -0.8629 0.3574 0.3574
vn -0.8629 -0.3574 -0.3574
vn -0.3780 0.9125 -0.1566
vn -0.3780 -0.9125 -0.1566
vn -0.8629 0.3574 -0.3574
vn -0.3574 0.3574 -0.8629
vn -0.3574 -0.3574 -0.8629
vn -0.1566 0.9125 -0.3780
vn -0.1566 -0.9125 -0.3780
usemtl None
s off
f 3//1 2//1 5//1 6//1
f 1//2 17//2 4//2
f 13//3 3//3 6//3
f 2//4 1//4 4//4 5//4
f 4//5 17//5 7//5
f 13//6 6//6 9//6
f 5//7 4//7 7//7 8//7
f 6//8 5//8 8//8 9//8
f 9//9 8//9 11//9 12//9
f 7//10 17//10 10//10
f 13//11 9//11 12//11
f 8//12 7//12 10//12 11//12
f 12//13 11//13 15//13 16//13
f 10//14 17//14 14//14
f 13//15 12//15 16//15
f 11//16 10//16 14//16 15//16
f 16//17 15//17 19//17 20//17
f 14//18 17//18 18//18
f 13//19 16//19 20//19
f 15//20 14//20 18//20 19//20
f 20//21 19//21 22//21 23//21
f 18//22 17//22 21//22
f 13//23 20//23 23//23
f 19//24 18//24 21//24 22//24
f 23//25 22//25 25//25 26//25
f 21//26 17//26 24//26
f 13//27 23//27 26//27
f 22//28 21//28 24//28 25//28
f 25//29 24//29 1//29 2//29
f 26//30 25//30 2//30 3//30
f 24//31 17//31 1//31
f 13//32 26//32 3//32
